<svg xmlns="http://www.w3.org/2000/svg" viewBox="0 0 24 24" fill="#e6e6e6"><path d="M19.14 12.94a7.5 7.5 0 0 0 .05-.94 7.5 7.5 0 0 0-.05-.94l2.03-1.58a.5.5 0 0 0 .12-.64l-1.92-3.32a.5.5 0 0 0-.61-.22l-2.39.96a7 7 0 0 0-1.62-.94l-.36-2.54a.5.5 0 0 0-.5-.42h-3.84a.5.5 0 0 0-.5.42l-.36 2.54a7 7 0 0 0-1.62.94l-2.39-.96a.5.5 0 0 0-.61.22L2.74 8.84a.5.5 0 0 0 .12.64l2.03 1.58a7.5 7.5 0 0 0 0 1.88l-2.03 1.58a.5.5 0 0 0-.12.64l1.92 3.32a.5.5 0 0 0 .61.22l2.39-.96a7 7 0 0 0 1.62.94l.36 2.54a.5.5 0 0 0 .5.42h3.84a.5.5 0 0 0 .5-.42l.36-2.54a7 7 0 0 0 1.62-.94l2.39.96a.5.5 0 0 0 .61-.22l1.92-3.32a.5.5 0 0 0-.12-.64l-2.03-1.58zM12 15.5a3.5 3.5 0 1 1 0-7 3.5 3.5 0 0 1 0 7z"/></svg>
